<svg width="260" height="260" viewBox="0 0 260 260" xmlns="http://www.w3.org/2000/svg">
  <g fill="none" fill-rule="evenodd">
    <circle fill="#FFF" cx="130" cy="130" r="130" />
    <path
      d="M130 0c71.797 0 130 58.203 130 130s-58.203 130-130 130S0 201.797 0 130 58.203 0 130 0zm0 60c-38.66 0-70 31.34-70 70s31.34 70 70 70 70-31.34 70-70-31.34-70-70-70z"
      fill="#B5B5B5" fill-rule="nonzero" />
    <path d="M193.263 99.999C197.583 109.092 200 119.264 200 130s-2.417 20.908-6.737 30.001L160 160v-60l33.263-.001z"
      fill="#777" fill-rule="nonzero" />
    <path d="M99.999 3.479A130.366 130.366 0 01130 0c10.326 0 20.37 1.204 30.002 3.479L160 100h-60l-.001-96.521z"
      fill="#41AD95" />
    <path fill="#000" d="M100 100h60v60h-60z" />
  </g>
</svg>
