<svg width="632" height="156" viewBox="0 0 632 156" xmlns="http://www.w3.org/2000/svg">
  <defs />
  <g fill="none" fill-rule="evenodd">
    <path fill="currentcolor"
      d="M631.85 114h-39.9V42h39.9v7.966h-30.9v22.488h29.1v7.865h-29.1v25.715h30.9zM573.55 114h-10.5l-38.2-59.798h-.4c.133 2.353.3 5.277.5 8.773.2 3.496.3 7.092.3 10.79V114h-8.3V42h10.4l38.1 59.597h.4c-.067-1.076-.15-2.69-.25-4.84-.1-2.152-.2-4.505-.3-7.06-.1-2.554-.15-4.907-.15-7.058V42h8.4v72zM498.15 114h-25.8v-5.244l8.4-1.916V49.26l-8.4-2.016V42h25.8v5.244l-8.4 2.017v57.58l8.4 1.915zM417 114V42h8.955v63.933H457V114z" />
    <path fill="currentcolor"
      d="M214.95 114h-39.9V42h39.9v7.966h-30.9v22.488h29.1v7.865h-29.1v25.715h30.9zM128 114l-17-61v61h-8V42h13l16 58 18-58h12v72h-8V53l-18 61zM88.55 114h-25.8v-5.244l8.4-1.916V49.26l-8.4-2.016V42h25.8v5.244l-8.4 2.017v57.58l8.4 1.915zM28.45 114h-9V49.966H0V42h48v7.966H28.45z" />
    <g transform="translate(238)">
      <circle fill="#FFF" cx="78" cy="78" r="78" />
      <path
        d="M78 0c43.078 0 78 34.922 78 78s-34.922 78-78 78S0 121.078 0 78 34.922 0 78 0zm0 36c-23.196 0-42 18.804-42 42s18.804 42 42 42 42-18.804 42-42-18.804-42-42-42z"
        fill="#B5B5B5" fill-rule="nonzero" />
      <path d="M115.958 60A41.837 41.837 0 01120 78c0 6.442-1.45 12.545-4.042 18H96V60h19.958z" fill="#777"
        fill-rule="nonzero" />
      <path d="M60 2.087A78.22 78.22 0 0178 0a78.22 78.22 0 0118.001 2.087L96 60H60V2.087z" fill="#41AD95" />
      <path fill="#010101" d="M60 60h36v36H60z" />
    </g>
  </g>
</svg>
