<?xml version="1.0" encoding="UTF-8"?>
<svg width="24px" height="24px" viewBox="0 0 24 24" version="1.1" xmlns="http://www.w3.org/2000/svg" xmlns:xlink="http://www.w3.org/1999/xlink">
    <!-- Generator: Sketch 52.6 (67491) - http://www.bohemiancoding.com/sketch -->
    <title>Search</title>
    <desc>Created with Sketch.</desc>
    <g id="Search" stroke="none" stroke-width="1" fill="none" fill-rule="evenodd">
        <g id="search" fill="#000000" fill-rule="nonzero">
            <path d="M17.8496082,17.0024923 L17.8352503,16.9941168 C21.5058496,12.8685182 21.2303783,6.57196505 17.2135067,2.78268983 C13.1966352,-1.00658539 6.89472836,-0.914735587 2.98999639,2.98999639 C-0.914735587,6.89472836 -1.00658539,13.1966352 2.78268983,17.2135067 C6.57196505,21.2303783 12.8685182,21.5058496 16.9941168,17.8352503 L17.0024923,17.8496082 L22.9849493,23.8320652 C23.2196883,24.0587837 23.5928177,24.0555413 23.8235813,23.8247778 C24.0543449,23.5940142 24.0575872,23.2208848 23.8308687,22.9861458 L23.8320652,22.9849493 L17.8496082,17.0024923 Z M10.2471018,19.2207873 C5.29107209,19.2207873 1.27341621,15.2031315 1.27341621,10.2471018 C1.27341621,5.29107209 5.29107209,1.27341621 10.2471018,1.27341621 C15.2031315,1.27341621 19.2207873,5.29107209 19.2207873,10.2471018 C19.2155117,15.2009446 15.2009446,19.2155117 10.2471018,19.2207873 Z"></path>
        </g>
    </g>
</svg>