<?xml version="1.0" encoding="UTF-8"?>
<svg width="24px" height="24px" viewBox="0 0 24 24" version="1.1" xmlns="http://www.w3.org/2000/svg" xmlns:xlink="http://www.w3.org/1999/xlink">
    <!-- Generator: Sketch 52.6 (67491) - http://www.bohemiancoding.com/sketch -->
    <title>Language</title>
    <desc>Created with Sketch.</desc>
    <g id="Language" stroke="none" stroke-width="1" fill="none" fill-rule="evenodd">
        <g id="language" transform="translate(0.000000, 0.500000)" fill="#000000" fill-rule="nonzero">
            <path d="M3.06981818,14.7324131 C3.34936604,14.843757 3.66633109,14.7081935 3.77890909,14.4291404 L4.95272727,11.4989585 L8.14145455,11.4989585 L9.31309091,14.4291404 C9.42923741,14.7023012 9.74249148,14.8324433 10.0180074,14.7219994 C10.2935232,14.6115555 10.4301481,14.3010741 10.3254545,14.0233222 L7.05272727,5.84150399 C6.95616533,5.65063631 6.76044889,5.5303139 6.54654545,5.5303139 C6.33264202,5.5303139 6.13692558,5.65063631 6.04036364,5.84150399 L2.76763636,14.0233222 C2.65564317,14.3028779 2.79140181,14.6202991 3.07090909,14.7324131 L3.06981818,14.7324131 Z M6.54545455,7.51277672 L7.70290909,10.4080494 L5.38909091,10.4080494 L6.54545455,7.51277672 Z M5.45454545,4.95350399 C5.53938813,4.95349831 5.62305974,4.93370101 5.69890909,4.89568581 L7.88072727,3.80477672 C8.05652269,3.71837949 8.17249358,3.54435413 8.18455966,3.34884731 C8.19662573,3.15334048 8.10293406,2.9663754 7.93909663,2.85901708 C7.77525921,2.75165876 7.5664359,2.74039381 7.392,2.82950399 L5.21018182,3.92041309 C4.98412007,4.03371375 4.86556878,4.28752947 4.92377454,4.53360475 C4.98198031,4.77968002 5.20167997,4.95348706 5.45454545,4.95350399 Z M11.7272727,12.3171404 C11.582531,13.5205007 12.434401,14.6157622 13.6363636,14.7716858 C14.2105876,14.7833192 14.7746646,14.6192725 15.2530909,14.301504 C15.2956364,14.397504 15.3294545,14.4673222 15.3349091,14.4782313 C15.4781625,14.7367831 15.8012914,14.8341836 16.0635685,14.6978704 C16.3258457,14.5615573 16.4318216,14.2411384 16.3025455,13.9753222 C16.242309,13.8438949 16.1877138,13.7099546 16.1389091,13.5738676 C16.3309091,13.3905949 16.5305455,13.1942313 16.7498182,12.9760494 C17.5838712,12.117746 18.2893604,11.143289 18.8443636,10.0829585 C19.3323553,10.3892103 19.6308345,10.9228549 19.6363636,11.4989585 C19.6287562,12.5475654 18.904258,13.4546535 17.8832727,13.6938676 C17.6122008,13.7543416 17.4298521,14.0088431 17.4597559,14.2849642 C17.4896597,14.5610853 17.7222663,14.7706473 18,14.7716858 C18.0392639,14.7714861 18.0783945,14.7670976 18.1167273,14.7585949 C19.644184,14.4195511 20.7301341,13.0635884 20.7272727,11.4989585 C20.7259724,10.5041303 20.1918785,9.58622143 19.3276364,9.09350399 C19.5021818,8.69641309 19.5938182,8.43895854 19.6058182,8.40623127 C19.670126,8.22227197 19.6314077,8.01797876 19.5042482,7.87030691 C19.3770887,7.72263507 19.1808064,7.65401946 18.9893391,7.69030691 C18.7978718,7.72659437 18.6403078,7.86227197 18.576,8.04623127 C18.5017195,8.24994907 18.4198441,8.4508168 18.3305455,8.64841309 C17.4607134,8.34987822 16.5305345,8.27117654 15.6229091,8.41932218 C15.6665455,7.95241309 15.7221818,7.49750399 15.7898182,7.0785949 C17.3465455,6.94441309 19.1061818,6.5985949 19.1978182,6.57895854 C19.4838968,6.51142821 19.6650136,6.22935436 19.607367,5.94112149 C19.5497205,5.65288863 19.2740458,5.46217309 18.984,5.50986763 C18.9632727,5.51314036 17.424,5.8185949 15.9992727,5.96586763 C16.176,5.13568581 16.3374545,4.57714036 16.3407273,4.56514036 C16.3968505,4.37845285 16.3491138,4.17600511 16.2154993,4.03405726 C16.0818847,3.89210941 15.8826915,3.83222669 15.6929538,3.87696635 C15.5032161,3.92170601 15.3517595,4.06427103 15.2956364,4.25095854 C15.2781818,4.30877672 15.0709091,5.00914036 14.8669091,6.04004945 C14.8221818,6.04004945 14.7709091,6.04441309 14.7272727,6.04441309 L12.5454545,6.04441309 C12.2442083,6.04441309 12,6.2886214 12,6.58986763 C12,6.89111386 12.2442083,7.13532218 12.5454545,7.13532218 L14.6781818,7.13532218 C14.5996364,7.6545949 14.532,8.20986763 14.4927273,8.79023127 C12.9916149,9.36670635 11.9290445,10.7218504 11.7272727,12.3171404 Z M13.6363636,13.6807767 C13.2414545,13.6807767 12.8181818,13.1331404 12.8181818,12.3171404 C12.9650935,11.3351794 13.5769057,10.4844922 14.4610909,10.0327767 C14.4650462,11.1105786 14.6058077,12.1835188 14.88,13.2258676 C14.5364214,13.5268344 14.0930466,13.6890162 13.6363636,13.6807767 Z M16.4770909,9.42950399 C16.9397701,9.43354243 17.3994346,9.5044579 17.8418182,9.64004945 C17.344653,10.5781385 16.7173542,11.4412253 15.9785455,12.2036858 L15.8007273,12.3804131 C15.6274497,11.5524342 15.5418866,10.7085035 15.5454545,9.8625949 C15.5454545,9.76114036 15.5541818,9.66077672 15.5563636,9.55932218 C15.8563669,9.47627651 16.1658296,9.43227708 16.4770909,9.42841309 L16.4770909,9.42950399 Z M0.545454545,0.0455039945 C0.244208318,0.0455039945 -1.42108547e-14,0.289712313 -1.42108547e-14,0.59095854 L-1.42108547e-14,18.045504 C-1.42108547e-14,18.3467502 0.244208318,18.5909585 0.545454545,18.5909585 L9.81818182,18.5909585 L9.81818182,22.4091404 C9.81778656,22.6300591 9.95068677,22.8294005 10.1547673,22.913996 C10.3588479,22.9985914 10.5938027,22.9517333 10.7498182,22.7953222 L14.9530909,18.5898676 L23.4545455,18.5898676 C23.7557917,18.5898676 24,18.3456593 24,18.0444131 L24,0.589867631 C24,0.288621404 23.7557917,0.0444130855 23.4545455,0.0444130855 L0.545454545,0.0455039945 Z M14.7272727,17.4989585 C14.4,17.5 14.2843099,17.6694524 14.1818182,17.7716858 L10.9090909,21.0913222 L10.9090909,18.0444131 C10.9090909,17.7431669 10.6648826,17.4989585 10.3636364,17.4989585 L1.09090909,17.4989585 L1.09090909,1.13532218 L22.9090909,1.13532218 L22.9090909,17.4989585 L14.7272727,17.4989585 Z" id="svg_1"></path>
        </g>
    </g>
</svg>