<svg width="540" height="540" viewBox="0 0 540 540" xmlns="http://www.w3.org/2000/svg">
  <path fill="#E7E7E7" d="M0 0h540v540H0z"/>
  <path fill="#C4C4C4" d="M340.082 228.565l-8.185-47.83-167.53 29.414 24.553 139.909 16.627-2.813v12.02h170.087v-130.7h-35.552zm-134.534 104.61l-5.371 1.02-19.95-112.793 140.419-24.813 5.627 31.975H205.548v104.61zm156.276 12.276H219.357V242.377h142.467v103.076zm-133.26-93.868v76.475l28.903-19.181 17.904 11.251 43.48-47.828 5.628 2.3 28.135 32.486v-55.503h-124.05zm27.624 32.994c-6.648 0-12.276-5.627-12.276-12.277 0-6.65 5.627-12.28 12.275-12.28 6.651 0 12.276 5.627 12.276 12.28.002 6.65-5.625 12.276-12.276 12.276z"/>
</svg>
